# Blender 5.0.1
# www.blender.org
o Plane
v -2.501387 0.000000 2.501387
v 2.501387 0.000000 2.501387
v -2.501387 0.000000 -2.501387
v 2.501387 0.000000 -2.501387
v -7.353774 0.000000 3.900142
v -9.846622 -0.020497 -5.429632
v -7.373849 0.000000 4.243448
v -12.528609 0.000000 -1.046584
v -9.942760 0.000000 7.211967
v -15.839650 0.000000 2.835325
v -5.832502 0.000000 5.556447
v -8.401413 0.000000 8.524966
v -11.458032 -0.020497 -7.753059
v -19.550299 0.000000 -8.296621
v -3.789974 0.000000 -8.690778
v -8.577012 0.000000 -14.637146
v -0.899873 0.000000 -13.487216
v -7.984812 0.000000 -15.949007
v -2.697955 0.000000 -19.387661
v -8.356030 0.000000 -17.013168
v -5.989296 0.000000 -23.180243
v -12.371816 0.000000 -18.986361
v -7.188121 0.000000 -27.404673
v -13.570642 0.000000 -23.210791
v -10.148512 0.000000 -30.471245
v -15.291375 0.000000 -24.825346
v -14.190483 0.000000 -31.184147
v -15.702178 0.000000 -24.797489
v -20.378641 0.000000 -28.996246
v -17.734533 0.000000 -22.989307
v -21.693008 0.000000 -28.947254
v -18.589468 0.000000 -21.896561
v -23.462704 0.000000 -26.549603
v -20.359161 0.000000 -19.498909
v -28.572283 0.000000 -24.478514
v -20.387396 0.000000 -18.487309
v -26.576744 0.000000 -16.741411
v -20.441982 0.000000 -16.177122
v -26.747015 0.000000 -13.843762
v -20.385891 0.000000 -15.535383
v -22.097538 0.000000 -11.023046
v -18.984154 0.000000 -14.816714
v -19.665749 0.000000 -9.940791
v -14.337166 0.000000 -14.414708
v -17.845587 0.000000 -1.788047
v -22.910534 0.000000 -5.500031
v -18.346802 0.000000 5.260930
v -25.035315 0.000000 2.407760
v -19.146017 0.000000 8.172361
v -25.834532 0.000000 5.319192
v -20.915712 0.000000 11.768836
v -27.604225 0.000000 8.915668
v -28.403442 0.000000 0.523892
v -29.202660 0.000000 3.435324
v -31.134281 0.000000 -1.148860
v -33.436420 0.000000 2.596254
v -31.953382 0.000000 -1.959352
v -34.900795 0.000000 1.009098
v -31.917608 0.000000 -4.631174
v -37.291176 0.000000 -2.204186
v -29.583281 0.000000 4.601088
v -31.048426 0.000000 7.578644
v -32.152191 0.000000 4.315653
v -33.617336 0.000000 7.293209
v -34.755833 0.000000 3.172687
v -37.064899 0.000000 7.865305
v -37.610249 0.000000 3.692135
v -39.576653 0.000000 7.688379
v -38.043762 0.000000 2.636405
v -43.253387 0.000000 6.003940
v -37.793472 0.000000 2.158068
v -43.960377 0.000000 2.828720
v -36.937168 0.000000 0.045853
v -43.104076 0.000000 0.716504
v -30.507896 0.000000 -6.856299
v -42.183468 0.000000 -2.612598
v -36.736660 0.000000 -7.095987
v -41.220623 0.000000 -4.695529
v -29.949257 0.384405 -9.232262
v -34.636753 0.384405 -9.412641
v -31.186602 0.977539 -12.930579
v -34.519939 0.721283 -11.481724
v -33.975758 1.597548 -16.818291
v -37.309097 1.341292 -15.369435
v -41.632469 0.623007 -11.046345
v -46.116432 0.623007 -8.645887
v -41.653622 0.715937 -11.620886
v -46.708294 1.159253 -11.970093
v -39.762348 1.320441 -15.314793
v -44.817017 1.763756 -15.664000
v -39.883442 1.875598 -18.746082
v -44.938110 2.318913 -19.095287
v -34.793816 2.167956 -20.358376
v -38.127155 1.911701 -18.909521
v -43.835190 1.900010 -23.394554
v -45.366222 2.521795 -21.796976
v -47.595093 2.203291 -24.648548
v -49.322685 2.321530 -22.572201
v -39.437523 1.952446 -21.668573
v -43.340374 1.818203 -25.334654
v -35.530846 1.989271 -23.908052
v -40.197472 1.893465 -28.811678
v -42.911938 1.860088 -26.969652
v -41.215935 1.918597 -29.502886
v -47.263248 2.214817 -25.813778
v -50.531132 2.446742 -26.227633
v -46.017387 2.194637 -28.703754
v -52.258957 2.637606 -29.494207
v -47.946518 2.423721 -32.199062
v -50.211922 2.584498 -32.485962
vn -0.0000 1.0000 -0.0000
vn -0.0015 1.0000 -0.0012
vn 0.0027 1.0000 -0.0028
vn 0.0029 1.0000 -0.0026
vn -0.0024 1.0000 0.0019
vn 0.0020 1.0000 0.0017
vn -0.0061 0.9874 0.1583
vn -0.0062 0.9870 0.1604
vn -0.0057 0.9869 0.1615
vn 0.0505 0.9943 0.0943
vn 0.0774 0.9861 0.1470
vn 0.0721 0.9778 0.1969
vn 0.0755 0.9848 0.1567
vn -0.0061 0.9870 0.1605
vn -0.0051 0.9871 0.1601
vn 0.1487 0.9872 -0.0581
vn 0.0531 0.9870 -0.1517
vn -0.0107 0.9999 -0.0031
vn -0.0208 0.9998 -0.0060
vn 0.0062 0.9996 0.0272
vn 0.0748 0.9971 0.0147
vn 0.0680 0.9974 0.0223
vn 0.0672 0.9973 0.0283
vt 0.000000 0.000000
vt 1.000000 0.000000
vt 1.000000 1.000000
vt 0.000000 1.000000
s 0
f 1/1/1 2/2/1 4/3/1 3/4/1
f 1/1/2 3/4/2 6/4/2 5/1/2
f 5/1/3 6/4/3 8/4/3 7/1/3
f 7/1/1 8/4/1 10/4/1 9/1/1
f 7/1/1 9/1/1 12/1/1 11/1/1
f 8/4/4 6/4/4 13/4/4 14/4/4
f 13/4/5 6/4/5 15/4/5 16/4/5
f 16/4/1 15/4/1 17/4/1 18/4/1
f 18/4/1 17/4/1 19/4/1 20/4/1
f 20/4/1 19/4/1 21/4/1 22/4/1
f 22/4/1 21/4/1 23/4/1 24/4/1
f 24/4/1 23/4/1 25/4/1 26/4/1
f 26/4/1 25/4/1 27/4/1 28/4/1
f 28/4/1 27/4/1 29/4/1 30/4/1
f 30/4/1 29/4/1 31/4/1 32/4/1
f 32/4/1 31/4/1 33/4/1 34/4/1
f 34/4/1 33/4/1 35/4/1 36/4/1
f 36/4/1 35/4/1 37/4/1 38/4/1
f 38/4/1 37/4/1 39/4/1 40/4/1
f 40/4/1 39/4/1 41/4/1 42/4/1
f 42/4/1 41/4/1 43/4/1 44/4/1
f 13/4/6 44/4/6 43/4/6 14/4/6
f 8/4/1 14/4/1 46/4/1 45/4/1
f 45/4/1 46/4/1 48/4/1 47/4/1
f 47/4/1 48/4/1 50/4/1 49/4/1
f 49/4/1 50/4/1 52/4/1 51/4/1
f 50/4/1 48/4/1 53/4/1 54/4/1
f 54/4/1 53/4/1 55/4/1 56/4/1
f 56/4/1 55/4/1 57/4/1 58/4/1
f 58/4/1 57/4/1 59/4/1 60/4/1
f 52/4/1 50/4/1 61/4/1 62/4/1
f 62/4/1 61/4/1 63/4/1 64/4/1
f 64/4/1 63/4/1 65/4/1 66/4/1
f 66/4/1 65/4/1 67/4/1 68/4/1
f 68/4/1 67/4/1 69/4/1 70/4/1
f 70/4/1 69/4/1 71/4/1 72/4/1
f 72/4/1 71/4/1 73/4/1 74/4/1
f 74/4/1 73/4/1 60/4/1 76/4/1
f 60/4/1 59/4/1 75/4/1 77/4/1
f 76/4/1 60/4/1 77/4/1 78/4/1
f 77/4/7 75/4/7 79/4/7 80/4/7
f 80/4/8 79/4/8 81/4/8 82/4/8
f 82/4/9 81/4/9 83/4/9 84/4/9
f 78/4/10 77/4/10 85/4/10 86/4/10
f 86/4/11 85/4/11 87/4/11 88/4/11
f 88/4/12 87/4/12 89/4/12 90/4/12
f 90/4/13 89/4/13 91/4/13 92/4/13
f 84/4/14 83/4/14 93/4/14 94/4/14
f 89/4/15 84/4/15 94/4/15 91/4/15
f 92/4/16 91/4/16 95/4/16 96/4/16
f 96/4/17 95/4/17 97/4/17 98/4/17
f 95/4/18 91/4/18 99/4/18 100/4/18
f 100/4/19 99/4/19 101/4/19 102/4/19
f 100/4/20 102/4/20 104/4/20 103/4/20
f 98/4/21 97/4/21 105/4/21 106/4/21
f 106/4/22 105/4/22 107/4/22 108/4/22
f 108/4/23 107/4/23 109/4/23 110/4/23
