# Blender 5.0.1
# www.blender.org
mtllib Pilz01.mtl
o Roundcube
v 0.577350 0.026691 -0.577350
v 0.192450 0.008927 -0.693889
v -0.192450 0.008927 -0.693889
v 0.693889 0.174569 -0.693889
v 0.231296 0.160402 -0.944989
v -0.231296 0.160402 -0.944989
v -0.577350 0.026691 -0.577350
v -0.693889 0.008927 -0.192450
v -0.693889 0.008927 0.192450
v -0.693889 0.174569 -0.693889
v -0.944989 0.160402 -0.231296
v -0.944989 0.160402 0.231296
v -0.577350 0.026691 0.577350
v -0.195369 0.015952 0.686994
v 0.173544 0.054437 0.649227
v -0.693889 0.174569 0.693889
v -0.231858 0.161755 0.943661
v 0.216940 0.194958 0.911077
v 0.546346 0.101322 0.504110
v 0.674982 0.054437 0.147788
v 0.690970 0.015952 -0.199344
v 0.664622 0.245018 0.624752
v 0.930633 0.194958 0.197384
v 0.944427 0.161755 -0.232624
v 0.356591 -0.853094 -0.182490
v 0.182490 -0.853094 -0.356591
v -0.356591 -0.853094 0.182490
v -0.182490 -0.853094 0.356591
v 0.577350 0.469669 -0.577350
v 0.192450 0.541320 -0.693889
v -0.192450 0.541320 -0.693889
v -0.577350 0.469669 -0.577350
v 0.693799 0.541536 -0.192662
v 0.231296 0.873149 -0.231296
v -0.231296 0.873149 -0.231296
v -0.693889 0.541320 -0.192450
v 0.686408 0.559326 0.174780
v 0.231296 0.873149 0.231296
v -0.231296 0.873149 0.231296
v -0.693889 0.541320 0.192450
v 0.559874 0.511737 0.536066
v 0.184970 0.559326 0.676218
v -0.192540 0.541536 0.693677
v -0.577350 0.469669 0.577350
v -0.182490 -1.027195 0.182490
v 0.182490 -1.027195 0.182490
v 0.182490 -0.853094 0.356591
v 0.356591 -0.853094 0.182490
v 0.108610 0.058658 0.208244
v 0.221538 0.058658 0.095316
v 0.318422 0.158903 0.291013
v -0.120823 0.041075 0.225499
v -0.338543 0.110472 0.338542
v -0.231327 0.035243 0.118295
v 0.228842 0.041075 -0.124166
v 0.118338 0.035243 -0.231370
v 0.338542 0.110472 -0.338544
v -0.231296 0.035168 -0.118369
v -0.338543 0.110471 -0.338543
v -0.118369 0.035168 -0.231296
v 0.140201 -0.353192 0.270987
v 0.280897 -0.353192 0.130291
v -0.148134 -0.369117 0.286615
v -0.288171 -0.370703 0.147475
v 0.287513 -0.369117 -0.149031
v 0.147475 -0.370703 -0.288171
v -0.288171 -0.370703 -0.147475
v -0.147475 -0.370703 -0.288171
v 0.182490 -1.027195 -0.182490
v -0.182490 -1.027195 -0.182490
v -0.356591 -0.853094 -0.182490
v -0.182490 -0.853094 -0.356591
v 0.693889 0.094213 -0.693889
v 0.615104 0.011975 -0.615104
v 0.670813 0.023341 -0.670813
v 0.213370 -0.005070 -0.829116
v 0.231296 0.095886 -0.944989
v 0.226046 0.019532 -0.911050
v -0.213370 -0.005070 -0.829116
v -0.231296 0.095886 -0.944989
v -0.226046 0.019532 -0.911050
v -0.615104 0.011975 -0.615104
v -0.693889 0.094213 -0.693889
v -0.670813 0.023341 -0.670813
v -0.829116 -0.005070 -0.213370
v -0.944989 0.095886 -0.231296
v -0.911050 0.019532 -0.226046
v -0.829116 -0.005070 0.213370
v -0.944989 0.095886 0.231296
v -0.911050 0.019532 0.226046
v -0.615104 0.011975 0.615104
v -0.693889 0.094213 0.693889
v -0.670813 0.023341 0.670813
v -0.215133 -0.000826 0.824951
v -0.231976 0.097522 0.943383
v -0.227067 0.021989 0.908639
v 0.195647 0.037592 0.787248
v 0.216265 0.132067 0.909482
v 0.209883 0.058437 0.872871
v 0.583822 0.087273 0.541208
v 0.663149 0.168208 0.621273
v 0.639531 0.098640 0.596917
v 0.811392 0.037592 0.171503
v 0.929958 0.132067 0.195790
v 0.894888 0.058437 0.187866
v 0.827353 -0.000826 -0.217535
v 0.944309 0.097522 -0.232902
v 0.910030 0.021989 -0.228457
vn -0.1182 -0.9849 0.1261
vn -0.0294 -0.9828 0.1822
vn 0.0305 -0.9830 0.1811
vn 0.6811 0.2676 -0.6816
vn 0.2252 0.2680 -0.9367
vn -0.2252 0.2680 -0.9367
vn 0.1179 -0.9860 0.1179
vn 0.1811 -0.9830 0.0305
vn 0.1820 -0.9829 -0.0296
vn -0.6813 0.2676 -0.6813
vn -0.9367 0.2680 -0.2252
vn -0.9367 0.2680 0.2252
vn 0.1247 -0.9851 -0.1183
vn 0.0783 -0.9800 -0.1831
vn 0.0336 -0.9813 -0.1898
vn -0.6811 0.2670 0.6818
vn -0.2007 0.2554 0.9458
vn 0.2761 0.2495 0.9282
vn -0.0980 -0.9908 -0.0937
vn -0.1896 -0.9809 0.0441
vn -0.1846 -0.9790 0.0871
vn 0.6899 0.2538 0.6780
vn 0.9327 0.2583 0.2517
vn 0.9403 0.2602 -0.2194
vn 0.8979 -0.2675 -0.3496
vn 0.3506 -0.2687 -0.8972
vn -0.8969 -0.2685 0.3513
vn -0.3457 -0.2646 0.9002
vn 0.5520 0.6245 -0.5526
vn 0.1991 0.6882 -0.6977
vn -0.1991 0.6882 -0.6977
vn -0.5524 0.6243 -0.5524
vn 0.6959 0.6880 -0.2059
vn 0.2681 0.9237 -0.2737
vn -0.2707 0.9238 -0.2707
vn -0.6977 0.6882 -0.1991
vn 0.6974 0.6900 0.1937
vn 0.2662 0.9261 0.2673
vn -0.2720 0.9238 0.2696
vn -0.6977 0.6882 0.1991
vn 0.5543 0.6222 0.5529
vn 0.2074 0.6836 0.6998
vn -0.1957 0.6855 0.7013
vn -0.5524 0.6243 0.5524
vn -0.3416 -0.8756 0.3416
vn 0.3416 -0.8756 0.3416
vn 0.3572 -0.2573 0.8979
vn 0.8973 -0.2599 0.3567
vn 0.3265 -0.4450 0.8339
vn 0.8302 -0.4636 0.3095
vn 0.0197 -0.9996 0.0207
vn -0.1736 -0.4776 0.8613
vn 0.0721 -0.9967 -0.0361
vn -0.8143 -0.5165 0.2648
vn 0.8481 -0.4894 -0.2030
vn 0.2587 -0.5129 -0.8185
vn -0.0323 -0.9968 0.0728
vn -0.8180 -0.5160 -0.2540
vn 0.0432 -0.9981 0.0432
vn -0.2540 -0.5160 -0.8181
vn 0.3932 0.1727 0.9031
vn 0.9093 0.1687 0.3804
vn -0.3593 0.1647 0.9186
vn -0.9121 0.1565 0.3790
vn 0.9137 0.1580 -0.3744
vn 0.3748 0.1547 -0.9141
vn -0.9127 0.1559 -0.3777
vn -0.3778 0.1559 -0.9127
vn 0.3416 -0.8756 -0.3416
vn -0.3416 -0.8756 -0.3416
vn -0.8970 -0.2686 -0.3511
vn -0.3511 -0.2686 -0.8970
vn 0.6924 -0.2036 -0.6922
vn 0.0547 -0.9972 -0.0515
vn 0.4796 -0.7356 -0.4784
vn 0.0344 -0.9959 -0.0841
vn 0.2383 -0.2042 -0.9495
vn 0.1692 -0.7335 -0.6583
vn -0.0344 -0.9959 -0.0841
vn -0.2383 -0.2042 -0.9495
vn -0.1692 -0.7335 -0.6583
vn -0.0584 -0.9966 -0.0584
vn -0.6924 -0.2030 -0.6924
vn -0.4809 -0.7332 -0.4809
vn -0.0841 -0.9959 -0.0344
vn -0.9495 -0.2042 -0.2383
vn -0.6583 -0.7335 -0.1692
vn -0.0841 -0.9959 0.0344
vn -0.9495 -0.2042 0.2383
vn -0.6583 -0.7335 0.1692
vn -0.0515 -0.9972 0.0549
vn -0.6912 -0.2049 0.6930
vn -0.4771 -0.7364 0.4796
vn 0.0218 -0.9974 0.0693
vn -0.1926 -0.2226 0.9557
vn -0.1098 -0.7519 0.6501
vn 0.1147 -0.9925 0.0426
vn 0.3198 -0.2302 0.9191
vn 0.2649 -0.7475 0.6091
vn 0.0564 -0.9966 0.0603
vn 0.6941 -0.2232 0.6844
vn 0.4771 -0.7411 0.4724
vn 0.0442 -0.9922 0.1170
vn 0.9286 -0.2241 0.2957
vn 0.6189 -0.7452 0.2483
vn 0.0671 -0.9975 0.0217
vn 0.9527 -0.2167 -0.2131
vn 0.6487 -0.7509 -0.1237
vt 0.730560 0.043968
vt 0.832936 0.044322
vt 0.809368 0.111553
vt 0.742914 0.093887
vt 0.911239 0.088993
vt 0.863936 0.143763
vt 0.961667 0.179440
vt 0.911945 0.192896
vt 0.962407 0.282495
vt 0.895137 0.259858
vt 0.917592 0.361030
vt 0.862199 0.313993
vt 0.827949 0.412014
vt 0.813929 0.362454
vt 0.725782 0.413222
vt 0.747017 0.345629
vt 0.651087 0.364952
vt 0.694930 0.311588
vt 0.604873 0.267886
vt 0.650894 0.259387
vt 0.601007 0.166926
vt 0.663353 0.195010
vt 0.641283 0.092874
vt 0.692865 0.141574
vt 0.295015 0.304970
vt 0.347186 0.272461
vt 0.402966 0.296551
vt 0.309305 0.373899
vt 0.349349 0.229909
vt 0.408619 0.231588
vt 0.273735 0.270876
vt 0.316620 0.241887
vt 0.254628 0.356423
vt 0.251780 0.393852
vt 0.254948 0.301044
vt 0.765205 0.181875
vt 0.822998 0.216500
vt 0.731806 0.240295
vt 0.789686 0.274715
vt 0.295971 0.458276
vt 0.239889 0.457852
vt 0.453510 0.222858
vt 0.830577 0.741817
vt 0.825627 0.712362
vt 0.870777 0.717903
vt 0.809748 0.780136
vt 0.809722 0.828870
vt 0.782674 0.788019
vt 0.793822 0.685839
vt 0.765919 0.688341
vt 0.777542 0.640990
vt 0.743039 0.767043
vt 0.694552 0.769489
vt 0.732171 0.738801
vt 0.360136 0.135462
vt 0.395136 0.121965
vt 0.165225 0.317225
vt 0.184201 0.257409
vt 0.145689 0.412555
vt 0.159918 0.356180
vt 0.735879 0.721306
vt 0.689682 0.735319
vt 0.209517 0.218918
vt 0.260472 0.175402
vt 0.300127 0.155097
vt 0.349715 0.062049
vt 0.312849 0.066580
vt 0.202103 0.120912
vt 0.254120 0.088423
vt 0.151193 0.169266
vt 0.116518 0.220124
vt 0.079146 0.328166
vt 0.089497 0.279170
vt 0.914168 0.780502
vt 0.882557 0.843444
vt 0.929933 0.705772
vt 0.890861 0.644931
vt 0.840943 0.601872
vt 0.826395 0.893393
vt 0.751675 0.878133
vt 0.686906 0.844637
vt 0.657249 0.667527
vt 0.706590 0.614355
vt 0.771508 0.574847
vt 0.088145 0.378017
vt 0.632027 0.791248
vt 0.641913 0.715299
vt 0.770571 0.564356
vt 0.690276 0.594249
vt 0.680151 0.581577
vt 0.769260 0.549409
vt 0.724340 0.019098
vt 0.838206 0.020862
vt 0.835590 0.034294
vt 0.727368 0.031239
vt 0.635838 0.653061
vt 0.622429 0.643885
vt 0.928959 0.072225
vt 0.918624 0.081606
vt 0.616780 0.708215
vt 0.622017 0.794739
vt 0.607713 0.799728
vt 0.600903 0.704098
vt 0.986463 0.172883
vt 0.974369 0.176065
vt 0.671597 0.865694
vt 0.661877 0.878882
vt 0.985895 0.287613
vt 0.972446 0.285080
vt 0.743114 0.902706
vt 0.737863 0.918140
vt 0.934451 0.378667
vt 0.925025 0.368375
vt 0.829066 0.903605
vt 0.832896 0.918140
vt 0.834729 0.436757
vt 0.831433 0.424690
vt 0.902535 0.860683
vt 0.915135 0.871228
vt 0.721022 0.436757
vt 0.723416 0.423286
vt 0.938355 0.791571
vt 0.953938 0.797902
vt 0.633912 0.381266
vt 0.643952 0.372259
vt 0.940193 0.703994
vt 0.955048 0.701455
vt 0.580318 0.273746
vt 0.592730 0.270714
vt 0.910044 0.626923
vt 0.922709 0.616346
vt 0.578492 0.159831
vt 0.591347 0.163594
vt 0.854048 0.579368
vt 0.862434 0.565456
vt 0.626063 0.074322
vt 0.634404 0.085150
s 1
usemtl Material.001
f 4/1/4 5/2/5 30/3/30 29/4/29
f 5/2/5 6/5/6 31/6/31 30/3/30
f 6/5/6 10/7/10 32/8/32 31/6/31
f 10/7/10 11/9/11 36/10/36 32/8/32
f 11/9/11 12/11/12 40/12/40 36/10/36
f 12/11/12 16/13/16 44/14/44 40/12/40
f 16/13/16 17/15/17 43/16/43 44/14/44
f 17/15/17 18/17/18 42/18/42 43/16/43
f 18/17/18 22/19/22 41/20/41 42/18/42
f 22/19/22 23/21/23 37/22/37 41/20/41
f 23/21/23 24/23/24 33/24/33 37/22/37
f 24/23/24 4/1/4 29/4/29 33/24/33
f 46/25/46 45/26/45 70/27/70 69/28/69
f 27/29/27 71/30/71 70/27/70 45/26/45
f 47/31/47 28/32/28 45/26/45 46/25/46
f 25/33/25 69/28/69 26/34/26
f 28/32/28 27/29/27 45/26/45
f 47/31/47 46/25/46 48/35/48
f 29/4/29 30/3/30 34/36/34 33/24/33
f 30/3/30 31/6/31 35/37/35 34/36/34
f 31/6/31 32/8/32 36/10/36 35/37/35
f 33/24/33 34/36/34 38/38/38 37/22/37
f 34/36/34 35/37/35 39/39/39 38/38/38
f 35/37/35 36/10/36 40/12/40 39/39/39
f 37/22/37 38/38/38 42/18/42 41/20/41
f 38/38/38 39/39/39 43/16/43 42/18/42
f 39/39/39 40/12/40 44/14/44 43/16/43
f 69/28/69 70/40/70 72/41/72 26/34/26
f 46/25/46 69/28/69 25/33/25 48/35/48
f 71/30/71 72/42/72 70/27/70
f 49/43/49 50/44/50 51/45/51
f 52/46/52 53/47/53 54/48/54
f 55/49/55 56/50/56 57/51/57
f 58/52/58 59/53/59 60/54/60
f 67/55/67 68/56/68 72/42/72 71/30/71
f 65/57/65 62/58/62 48/35/48 25/33/25
f 68/59/68 66/60/66 26/34/26 72/41/72
f 51/45/51 53/47/53 52/46/52 49/43/49
f 50/44/50 55/49/55 57/51/57 51/45/51
f 53/47/53 59/53/59 58/52/58 54/48/54
f 56/50/56 60/61/60 59/62/59 57/51/57
f 61/63/61 63/64/63 28/32/28 47/31/47
f 62/58/62 61/63/61 47/31/47 48/35/48
f 64/65/64 67/55/67 71/30/71 27/29/27
f 63/64/63 64/65/64 27/29/27 28/32/28
f 60/66/60 68/56/68 67/55/67 58/67/58
f 63/64/63 52/68/52 54/69/54 64/65/64
f 49/70/49 61/63/61 62/58/62 50/71/50
f 66/60/66 56/72/56 55/73/55 65/57/65
f 15/74/15 14/75/14 53/47/53 51/45/51
f 19/76/19 15/74/15 51/45/51 20/77/20
f 49/70/49 52/68/52 63/64/63 61/63/61
f 20/77/20 51/45/51 57/51/57 21/78/21
f 55/73/55 50/71/50 62/58/62 65/57/65
f 14/75/14 13/79/13 9/80/9 53/47/53
f 53/47/53 9/80/9 8/81/8 59/53/59
f 54/69/54 58/67/58 67/55/67 64/65/64
f 57/51/57 59/62/59 3/82/3 2/83/2
f 21/78/21 57/51/57 2/83/2 1/84/1
f 60/85/60 56/72/56 66/60/66 68/59/68
f 59/53/59 8/81/8 7/86/7 3/87/3
f 66/60/66 65/57/65 25/33/25 26/34/26
f 74/88/74 76/89/76 78/90/78 75/91/75
f 75/92/75 78/93/78 77/94/77 73/95/73
f 76/89/76 79/96/79 81/97/81 78/90/78
f 78/93/78 81/98/81 80/99/80 77/94/77
f 79/100/79 82/101/82 84/102/84 81/103/81
f 81/98/81 84/104/84 83/105/83 80/99/80
f 82/101/82 85/106/85 87/107/87 84/102/84
f 84/104/84 87/108/87 86/109/86 83/105/83
f 85/106/85 88/110/88 90/111/90 87/107/87
f 87/108/87 90/112/90 89/113/89 86/109/86
f 88/110/88 91/114/91 93/115/93 90/111/90
f 90/112/90 93/116/93 92/117/92 89/113/89
f 91/114/91 94/118/94 96/119/96 93/115/93
f 93/116/93 96/120/96 95/121/95 92/117/92
f 94/118/94 97/122/97 99/123/99 96/119/96
f 96/120/96 99/124/99 98/125/98 95/121/95
f 97/122/97 100/126/100 102/127/102 99/123/99
f 99/124/99 102/128/102 101/129/101 98/125/98
f 100/126/100 103/130/103 105/131/105 102/127/102
f 102/128/102 105/132/105 104/133/104 101/129/101
f 103/130/103 106/134/106 108/135/108 105/131/105
f 105/132/105 108/136/108 107/137/107 104/133/104
f 73/95/73 107/137/107 108/136/108 75/92/75
f 75/91/75 108/135/108 106/134/106 74/88/74
f 21/78/21 1/84/1 74/88/74 106/134/106
f 1/84/1 2/83/2 76/89/76 74/88/74
f 73/95/73 77/94/77 5/2/5 4/1/4
f 107/137/107 73/95/73 4/1/4 24/23/24
f 2/83/2 3/82/3 79/96/79 76/89/76
f 77/94/77 80/99/80 6/5/6 5/2/5
f 3/87/3 7/86/7 82/101/82 79/100/79
f 80/99/80 83/105/83 10/7/10 6/5/6
f 7/86/7 8/81/8 85/106/85 82/101/82
f 83/105/83 86/109/86 11/9/11 10/7/10
f 8/81/8 9/80/9 88/110/88 85/106/85
f 86/109/86 89/113/89 12/11/12 11/9/11
f 9/80/9 13/79/13 91/114/91 88/110/88
f 89/113/89 92/117/92 16/13/16 12/11/12
f 13/79/13 14/75/14 94/118/94 91/114/91
f 92/117/92 95/121/95 17/15/17 16/13/16
f 14/75/14 15/74/15 97/122/97 94/118/94
f 95/121/95 98/125/98 18/17/18 17/15/17
f 15/74/15 19/76/19 100/126/100 97/122/97
f 98/125/98 101/129/101 22/19/22 18/17/18
f 19/76/19 20/77/20 103/130/103 100/126/100
f 101/129/101 104/133/104 23/21/23 22/19/22
f 20/77/20 21/78/21 106/134/106 103/130/103
f 104/133/104 107/137/107 24/23/24 23/21/23
