# Blender 5.0.1
# www.blender.org
mtllib Pilz01obj.mtl
o Roundcube.002
v 0.351048 1.089598 -0.437571
v 0.117144 1.078803 -0.508392
v -0.116760 1.078803 -0.508392
v 0.421868 1.179464 -0.508392
v 0.140751 1.170854 -0.660985
v -0.140367 1.170854 -0.660985
v -0.350664 1.089598 -0.437571
v -0.421484 1.078803 -0.203667
v -0.421484 1.078803 0.030236
v -0.421484 1.179464 -0.508392
v -0.574078 1.170854 -0.227274
v -0.574078 1.170854 0.053843
v -0.350664 1.089598 0.264140
v -0.118533 1.083072 0.330771
v 0.105655 1.106459 0.307820
v -0.421484 1.179464 0.334961
v -0.140708 1.171677 0.486747
v 0.132027 1.191854 0.466946
v 0.332206 1.134951 0.219632
v 0.410379 1.106459 0.003095
v 0.420095 1.083072 -0.207857
v 0.404083 1.222275 0.292946
v 0.565738 1.191854 0.033235
v 0.574120 1.171677 -0.228081
v 0.356591 0.174101 -0.182490
v 0.182490 0.174101 -0.356591
v -0.356591 0.174101 0.182490
v -0.182490 0.174101 0.356591
v 0.351048 1.358796 -0.437571
v 0.117144 1.402338 -0.508392
v -0.116760 1.402338 -0.508392
v -0.350664 1.358796 -0.437571
v 0.421814 1.402469 -0.203796
v 0.140751 1.603990 -0.227274
v -0.140367 1.603990 -0.227274
v -0.421484 1.402338 -0.203667
v 0.417322 1.413280 0.019498
v 0.140751 1.603990 0.053843
v -0.140367 1.603990 0.053843
v -0.421484 1.402338 0.030236
v 0.340427 1.384360 0.239052
v 0.112598 1.413280 0.324222
v -0.116814 1.402469 0.334832
v -0.350664 1.358796 0.264140
v -0.182490 0.000000 0.182490
v 0.182490 0.000000 0.182490
v 0.182490 0.174101 0.356591
v 0.356591 0.174101 0.182490
v 0.066194 1.109025 0.039834
v 0.134820 1.109025 -0.028792
v 0.193697 1.169943 0.090133
v -0.073232 1.098339 0.050320
v -0.205541 1.140512 0.119016
v -0.140386 1.094795 -0.014827
v 0.139259 1.098339 -0.162171
v 0.072106 1.094795 -0.227319
v 0.205924 1.140512 -0.292449
v -0.140367 1.094749 -0.158648
v -0.205540 1.140511 -0.292448
v -0.071741 1.094749 -0.227274
v 0.140201 0.674003 0.270987
v 0.280897 0.674003 0.130291
v -0.148134 0.658078 0.286615
v -0.288171 0.656492 0.147475
v 0.287513 0.658078 -0.149031
v 0.147475 0.656492 -0.288171
v -0.288171 0.656492 -0.147475
v -0.147475 0.656492 -0.288171
v 0.182490 0.000000 -0.182490
v -0.182490 0.000000 -0.182490
v -0.356591 0.174101 -0.182490
v -0.182490 0.174101 -0.356591
v 0.421868 1.130631 -0.508392
v 0.373991 1.080655 -0.460514
v 0.407845 1.087562 -0.494369
v 0.129857 1.070297 -0.590569
v 0.140751 1.131648 -0.660985
v 0.137560 1.085247 -0.640361
v -0.129473 1.070297 -0.590569
v -0.140367 1.131648 -0.660985
v -0.137176 1.085247 -0.640361
v -0.373607 1.080655 -0.460514
v -0.421484 1.130631 -0.508392
v -0.407461 1.087562 -0.494369
v -0.503662 1.070297 -0.216381
v -0.574078 1.131648 -0.227274
v -0.553453 1.085247 -0.224084
v -0.503662 1.070297 0.042950
v -0.574078 1.131648 0.053843
v -0.553453 1.085247 0.050653
v -0.373607 1.080655 0.287083
v -0.421484 1.130631 0.334961
v -0.407461 1.087562 0.320938
v -0.130544 1.072876 0.414607
v -0.140780 1.132642 0.486578
v -0.137796 1.086741 0.465465
v 0.119087 1.096223 0.391695
v 0.131617 1.153635 0.465977
v 0.127738 1.108890 0.443728
v 0.354981 1.126414 0.242177
v 0.403188 1.175598 0.290832
v 0.388835 1.133321 0.276031
v 0.493275 1.096223 0.017507
v 0.565328 1.153635 0.032266
v 0.544016 1.108890 0.027451
v 0.502974 1.072876 -0.218911
v 0.574049 1.132642 -0.228250
v 0.553217 1.086741 -0.225549
vn -0.1182 -0.9849 0.1261
vn -0.0294 -0.9828 0.1822
vn 0.0305 -0.9830 0.1811
vn 0.6811 0.2676 -0.6816
vn 0.2252 0.2680 -0.9367
vn -0.2252 0.2680 -0.9367
vn 0.1179 -0.9860 0.1179
vn 0.1811 -0.9830 0.0305
vn 0.1820 -0.9829 -0.0296
vn -0.6813 0.2676 -0.6813
vn -0.9367 0.2680 -0.2252
vn -0.9367 0.2680 0.2252
vn 0.1247 -0.9851 -0.1183
vn 0.0783 -0.9800 -0.1831
vn 0.0336 -0.9813 -0.1898
vn -0.6811 0.2670 0.6818
vn -0.2007 0.2554 0.9458
vn 0.2761 0.2495 0.9282
vn -0.0980 -0.9908 -0.0937
vn -0.1896 -0.9809 0.0441
vn -0.1846 -0.9790 0.0871
vn 0.6899 0.2538 0.6780
vn 0.9327 0.2583 0.2517
vn 0.9403 0.2602 -0.2194
vn 0.8979 -0.2675 -0.3496
vn 0.3506 -0.2687 -0.8972
vn -0.8969 -0.2685 0.3513
vn -0.3457 -0.2646 0.9002
vn 0.5520 0.6245 -0.5526
vn 0.1991 0.6882 -0.6977
vn -0.1991 0.6882 -0.6977
vn -0.5524 0.6243 -0.5524
vn 0.6959 0.6880 -0.2059
vn 0.2681 0.9237 -0.2737
vn -0.2707 0.9238 -0.2707
vn -0.6977 0.6882 -0.1991
vn 0.6974 0.6900 0.1937
vn 0.2662 0.9261 0.2673
vn -0.2720 0.9238 0.2696
vn -0.6977 0.6882 0.1991
vn 0.5543 0.6222 0.5529
vn 0.2074 0.6836 0.6998
vn -0.1957 0.6855 0.7013
vn -0.5524 0.6243 0.5524
vn -0.3416 -0.8756 0.3416
vn 0.3416 -0.8756 0.3416
vn 0.3572 -0.2573 0.8979
vn 0.8973 -0.2599 0.3567
vn 0.3505 -0.2818 0.8932
vn 0.8895 -0.3453 0.2993
vn 0.0197 -0.9996 0.0207
vn -0.2029 -0.3010 0.9318
vn 0.0721 -0.9967 -0.0361
vn -0.8843 -0.3918 0.2539
vn 0.8720 -0.4285 -0.2367
vn 0.2494 -0.4975 -0.8308
vn -0.0323 -0.9968 0.0728
vn -0.8419 -0.4572 -0.2866
vn 0.0432 -0.9981 0.0432
vn -0.2444 -0.5007 -0.8304
vn 0.3668 0.3286 0.8703
vn 0.8781 0.2913 0.3796
vn -0.3483 0.3176 0.8819
vn -0.8805 0.2814 0.3815
vn 0.9071 0.2212 -0.3580
vn 0.3827 0.1728 -0.9076
vn -0.9069 0.2219 -0.3581
vn -0.3856 0.1743 -0.9061
vn 0.3416 -0.8756 -0.3416
vn -0.3416 -0.8756 -0.3416
vn -0.8970 -0.2686 -0.3511
vn -0.3511 -0.2686 -0.8970
vn 0.6924 -0.2036 -0.6922
vn 0.0547 -0.9972 -0.0515
vn 0.4796 -0.7356 -0.4784
vn 0.0344 -0.9959 -0.0841
vn 0.2383 -0.2042 -0.9495
vn 0.1692 -0.7335 -0.6583
vn -0.0344 -0.9959 -0.0841
vn -0.2383 -0.2042 -0.9495
vn -0.1692 -0.7335 -0.6583
vn -0.0584 -0.9966 -0.0584
vn -0.6924 -0.2030 -0.6924
vn -0.4809 -0.7332 -0.4809
vn -0.0841 -0.9959 -0.0344
vn -0.9495 -0.2042 -0.2383
vn -0.6583 -0.7335 -0.1692
vn -0.0841 -0.9959 0.0344
vn -0.9495 -0.2042 0.2383
vn -0.6583 -0.7335 0.1692
vn -0.0515 -0.9972 0.0549
vn -0.6912 -0.2049 0.6930
vn -0.4771 -0.7364 0.4796
vn 0.0218 -0.9974 0.0693
vn -0.1926 -0.2226 0.9557
vn -0.1098 -0.7519 0.6501
vn 0.1147 -0.9925 0.0426
vn 0.3198 -0.2302 0.9191
vn 0.2649 -0.7475 0.6091
vn 0.0564 -0.9966 0.0603
vn 0.6941 -0.2232 0.6844
vn 0.4771 -0.7411 0.4724
vn 0.0442 -0.9922 0.1170
vn 0.9286 -0.2241 0.2957
vn 0.6189 -0.7452 0.2483
vn 0.0671 -0.9975 0.0217
vn 0.9527 -0.2167 -0.2131
vn 0.6487 -0.7509 -0.1237
vt 0.753475 0.041741
vt 0.846681 0.042061
vt 0.825226 0.103273
vt 0.764723 0.087189
vt 0.917973 0.082728
vt 0.874908 0.132596
vt 0.963888 0.165074
vt 0.918619 0.177328
vt 0.964565 0.258901
vt 0.903318 0.238294
vt 0.923764 0.330407
vt 0.873329 0.287584
vt 0.842147 0.376828
vt 0.829382 0.331707
vt 0.749126 0.377928
vt 0.768460 0.316388
vt 0.681118 0.333979
vt 0.721037 0.285395
vt 0.639044 0.245603
vt 0.680944 0.237867
vt 0.635527 0.153685
vt 0.692289 0.179256
vt 0.672196 0.086267
vt 0.719158 0.130606
vt 0.200508 0.212916
vt 0.201596 0.275013
vt 0.160573 0.324361
vt 0.138881 0.191099
vt 0.236879 0.295197
vt 0.213016 0.340778
vt 0.237892 0.213546
vt 0.239868 0.263323
vt 0.189459 0.138601
vt 0.167858 0.101328
vt 0.225672 0.179921
vt 0.785019 0.167298
vt 0.837637 0.198822
vt 0.754612 0.220487
vt 0.807309 0.251824
vt 0.138881 0.407978
vt 0.204171 0.375108
vt 0.183733 0.436994
vt 0.707760 0.715624
vt 0.713183 0.746149
vt 0.666088 0.740745
vt 0.729219 0.675866
vt 0.729057 0.625419
vt 0.757212 0.667546
vt 0.746754 0.773425
vt 0.777031 0.772024
vt 0.762282 0.820217
vt 0.798259 0.688792
vt 0.848670 0.687135
vt 0.808590 0.717790
vt 0.311540 0.349845
vt 0.304111 0.384722
vt 0.296909 0.115782
vt 0.311024 0.169451
vt 0.298475 0.437513
vt 0.790227 0.760318
vt 0.796853 0.810117
vt 0.318238 0.205775
vt 0.318929 0.258960
vt 0.319338 0.295124
vt 0.394649 0.372162
vt 0.404802 0.343495
vt 0.412779 0.256927
vt 0.410555 0.299159
vt 0.409243 0.208308
vt 0.402486 0.171544
vt 0.294893 0.079327
vt 0.386986 0.116424
vt 0.393461 0.137290
vt 0.620872 0.675854
vt 0.653534 0.610468
vt 0.604633 0.753464
vt 0.645326 0.816644
vt 0.697455 0.861453
vt 0.711697 0.558602
vt 0.789120 0.574368
vt 0.856218 0.609024
vt 0.904349 0.742306
vt 0.874889 0.811926
vt 0.836673 0.844676
vt 0.770384 0.888342
vt 0.383944 0.401827
vt 0.913304 0.663766
vt 0.771649 0.899275
vt 0.854688 0.864895
vt 0.865738 0.877837
vt 0.773428 0.914904
vt 0.747812 0.019098
vt 0.851478 0.020702
vt 0.849097 0.032931
vt 0.750569 0.030152
vt 0.897852 0.826091
vt 0.930438 0.749061
vt 0.946845 0.753175
vt 0.912352 0.834910
vt 0.934105 0.067460
vt 0.924696 0.076002
vt 0.923605 0.660044
vt 0.938298 0.654735
vt 0.986463 0.159104
vt 0.975452 0.162001
vt 0.871961 0.587187
vt 0.881942 0.573537
vt 0.985949 0.263561
vt 0.973704 0.261255
vt 0.797965 0.548931
vt 0.803394 0.532958
vt 0.939114 0.346464
vt 0.930532 0.337094
vt 0.708922 0.548022
vt 0.704943 0.532958
vt 0.848320 0.399356
vt 0.845319 0.388369
vt 0.632784 0.592622
vt 0.619698 0.581702
vt 0.744791 0.399356
vt 0.746971 0.387091
vt 0.595746 0.664405
vt 0.579564 0.657858
vt 0.665480 0.348832
vt 0.674622 0.340632
vt 0.593967 0.755322
vt 0.578529 0.757972
vt 0.616687 0.250937
vt 0.627988 0.248177
vt 0.625371 0.835480
vt 0.612175 0.846539
vt 0.615028 0.147224
vt 0.626732 0.150651
vt 0.684017 0.885031
vt 0.675385 0.899664
vt 0.658339 0.069376
vt 0.665932 0.079234
s 1
usemtl Material.001
f 4/1/4 5/2/5 30/3/30 29/4/29
f 5/2/5 6/5/6 31/6/31 30/3/30
f 6/5/6 10/7/10 32/8/32 31/6/31
f 10/7/10 11/9/11 36/10/36 32/8/32
f 11/9/11 12/11/12 40/12/40 36/10/36
f 12/11/12 16/13/16 44/14/44 40/12/40
f 16/13/16 17/15/17 43/16/43 44/14/44
f 17/15/17 18/17/18 42/18/42 43/16/43
f 18/17/18 22/19/22 41/20/41 42/18/42
f 22/19/22 23/21/23 37/22/37 41/20/41
f 23/21/23 24/23/24 33/24/33 37/22/37
f 24/23/24 4/1/4 29/4/29 33/24/33
f 46/25/46 45/26/45 70/27/70 69/28/69
f 27/29/27 71/30/71 70/27/70 45/26/45
f 47/31/47 28/32/28 45/26/45 46/25/46
f 25/33/25 69/28/69 26/34/26
f 28/32/28 27/29/27 45/26/45
f 47/31/47 46/25/46 48/35/48
f 29/4/29 30/3/30 34/36/34 33/24/33
f 30/3/30 31/6/31 35/37/35 34/36/34
f 31/6/31 32/8/32 36/10/36 35/37/35
f 33/24/33 34/36/34 38/38/38 37/22/37
f 34/36/34 35/37/35 39/39/39 38/38/38
f 35/37/35 36/10/36 40/12/40 39/39/39
f 37/22/37 38/38/38 42/18/42 41/20/41
f 38/38/38 39/39/39 43/16/43 42/18/42
f 39/39/39 40/12/40 44/14/44 43/16/43
f 69/40/69 70/27/70 72/41/72 26/42/26
f 46/25/46 69/28/69 25/33/25 48/35/48
f 71/30/71 72/41/72 70/27/70
f 49/43/49 50/44/50 51/45/51
f 52/46/52 53/47/53 54/48/54
f 55/49/55 56/50/56 57/51/57
f 58/52/58 59/53/59 60/54/60
f 67/55/67 68/56/68 72/41/72 71/30/71
f 65/57/65 62/58/62 48/35/48 25/33/25
f 68/56/68 66/59/66 26/42/26 72/41/72
f 51/45/51 53/47/53 52/46/52 49/43/49
f 50/44/50 55/49/55 57/51/57 51/45/51
f 53/47/53 59/53/59 58/52/58 54/48/54
f 56/60/56 60/54/60 59/53/59 57/61/57
f 61/62/61 63/63/63 28/32/28 47/31/47
f 62/58/62 61/62/61 47/31/47 48/35/48
f 64/64/64 67/55/67 71/30/71 27/29/27
f 63/63/63 64/64/64 27/29/27 28/32/28
f 60/65/60 68/56/68 67/55/67 58/66/58
f 63/63/63 52/67/52 54/68/54 64/64/64
f 49/69/49 61/62/61 62/58/62 50/70/50
f 66/71/66 56/72/56 55/73/55 65/57/65
f 15/74/15 14/75/14 53/47/53 51/45/51
f 19/76/19 15/74/15 51/45/51 20/77/20
f 49/69/49 52/67/52 63/63/63 61/62/61
f 20/77/20 51/45/51 57/51/57 21/78/21
f 55/73/55 50/70/50 62/58/62 65/57/65
f 14/75/14 13/79/13 9/80/9 53/47/53
f 53/47/53 9/80/9 8/81/8 59/53/59
f 54/68/54 58/66/58 67/55/67 64/64/64
f 57/61/57 59/53/59 3/82/3 2/83/2
f 21/78/21 57/51/57 2/84/2 1/85/1
f 60/65/60 56/86/56 66/59/66 68/56/68
f 59/53/59 8/81/8 7/87/7 3/82/3
f 66/71/66 65/57/65 25/33/25 26/34/26
f 74/88/74 76/89/76 78/90/78 75/91/75
f 75/92/75 78/93/78 77/94/77 73/95/73
f 76/96/76 79/97/79 81/98/81 78/99/78
f 78/93/78 81/100/81 80/101/80 77/94/77
f 79/97/79 82/102/82 84/103/84 81/98/81
f 81/100/81 84/104/84 83/105/83 80/101/80
f 82/102/82 85/106/85 87/107/87 84/103/84
f 84/104/84 87/108/87 86/109/86 83/105/83
f 85/106/85 88/110/88 90/111/90 87/107/87
f 87/108/87 90/112/90 89/113/89 86/109/86
f 88/110/88 91/114/91 93/115/93 90/111/90
f 90/112/90 93/116/93 92/117/92 89/113/89
f 91/114/91 94/118/94 96/119/96 93/115/93
f 93/116/93 96/120/96 95/121/95 92/117/92
f 94/118/94 97/122/97 99/123/99 96/119/96
f 96/120/96 99/124/99 98/125/98 95/121/95
f 97/122/97 100/126/100 102/127/102 99/123/99
f 99/124/99 102/128/102 101/129/101 98/125/98
f 100/126/100 103/130/103 105/131/105 102/127/102
f 102/128/102 105/132/105 104/133/104 101/129/101
f 103/130/103 106/134/106 108/135/108 105/131/105
f 105/132/105 108/136/108 107/137/107 104/133/104
f 73/95/73 107/137/107 108/136/108 75/92/75
f 75/91/75 108/135/108 106/134/106 74/88/74
f 21/78/21 1/85/1 74/88/74 106/134/106
f 1/85/1 2/84/2 76/89/76 74/88/74
f 73/95/73 77/94/77 5/2/5 4/1/4
f 107/137/107 73/95/73 4/1/4 24/23/24
f 2/83/2 3/82/3 79/97/79 76/96/76
f 77/94/77 80/101/80 6/5/6 5/2/5
f 3/82/3 7/87/7 82/102/82 79/97/79
f 80/101/80 83/105/83 10/7/10 6/5/6
f 7/87/7 8/81/8 85/106/85 82/102/82
f 83/105/83 86/109/86 11/9/11 10/7/10
f 8/81/8 9/80/9 88/110/88 85/106/85
f 86/109/86 89/113/89 12/11/12 11/9/11
f 9/80/9 13/79/13 91/114/91 88/110/88
f 89/113/89 92/117/92 16/13/16 12/11/12
f 13/79/13 14/75/14 94/118/94 91/114/91
f 92/117/92 95/121/95 17/15/17 16/13/16
f 14/75/14 15/74/15 97/122/97 94/118/94
f 95/121/95 98/125/98 18/17/18 17/15/17
f 15/74/15 19/76/19 100/126/100 97/122/97
f 98/125/98 101/129/101 22/19/22 18/17/18
f 19/76/19 20/77/20 103/130/103 100/126/100
f 101/129/101 104/133/104 23/21/23 22/19/22
f 20/77/20 21/78/21 106/134/106 103/130/103
f 104/133/104 107/137/107 24/23/24 23/21/23
